# xmcd
#
# Track frame offsets:
# 150
# 17293
# 30476
# 46570
# 60458
# 76672
# 88200
# 97400
# 111098
# 126706
# 141449
# 154146
# 170532
# 194814
# 215912
# 224191
# 240789
# 259806
# 282462
#
# Disc length: 3923 seconds
#
#
# Revision: 0
# Processed by: cddbd v1.5.1PL0 Copyright (c) Steve Scherf et al.
# Submitted via: FreeRIP 2.941 
#
DISCID=1f0f5113
DTITLE=Rock Mix - Rock Miz
DYEAR=1900
DGENRE=Acid
TTITLE0=I'm The One
TTITLE1=Kiss Off
TTITLE2=She's Sexy and 17
TTITLE3=Basket Case
TTITLE4=Movie Star
TTITLE5=Big Little Baby
TTITLE6=Song 2
TTITLE7=The Distance
TTITLE8=Guerilla Radio
TTITLE9=Stray Cat Strut
TTITLE10=Come Out Swinging
TTITLE11=One Way or Another
TTITLE12=The Devil's Chasing Me
TTITLE13=I Get Knocked Down
TTITLE14=36-24-36
TTITLE15=No Rain
TTITLE16=Breakfast at Tiffany's
TTITLE17=Sweet Home Alabama
TTITLE18=Lounge Act
EXTD=
EXTT0=
EXTT1=
EXTT2=
EXTT3=
EXTT4=
EXTT5=
EXTT6=
EXTT7=
EXTT8=
EXTT9=
EXTT10=
EXTT11=
EXTT12=
EXTT13=
EXTT14=
EXTT15=
EXTT16=
EXTT17=
EXTT18=
PLAYORDER=
